<svg width="16" height="16" viewBox="0 0 16 16" fill="none" xmlns="http://www.w3.org/2000/svg">
<g id="Group">
<path id="Vector" d="M15.6667 11.554C15.6667 11.8193 15.5613 12.0736 15.3738 12.2611C15.1863 12.4487 14.9319 12.554 14.6667 12.554H3.33337C3.06816 12.554 2.8138 12.4487 2.62627 12.2611C2.43873 12.0736 2.33337 11.8193 2.33337 11.554V2.2207C2.33337 1.95549 2.43873 1.70113 2.62627 1.5136C2.8138 1.32606 3.06816 1.2207 3.33337 1.2207H14.6667C14.9319 1.2207 15.1863 1.32606 15.3738 1.5136C15.5613 1.70113 15.6667 1.95549 15.6667 2.2207V11.554Z" stroke="#8D94A7" stroke-linecap="round" stroke-linejoin="round"/>
<path id="Vector_2" d="M15.3334 1.55469L9.00008 7.55469L2.66675 1.55469" stroke="#8D94A7" stroke-linecap="round" stroke-linejoin="round"/>
<path id="Vector_3" d="M2.33337 3.90234H1.00004C0.82323 3.90234 0.65366 3.97258 0.528636 4.09761C0.403612 4.22263 0.333374 4.3922 0.333374 4.56901V13.9023C0.333374 14.0792 0.403612 14.2487 0.528636 14.3737C0.65366 14.4988 0.82323 14.569 1.00004 14.569H12.3334C12.5102 14.569 12.6798 14.4988 12.8048 14.3737C12.9298 14.2487 13 14.0792 13 13.9023V12.569" stroke="#8D94A7" stroke-linecap="round" stroke-linejoin="round"/>
</g>
</svg>
