<svg width="17" height="16" viewBox="0 0 17 16" fill="none" xmlns="http://www.w3.org/2000/svg">
<path d="M12.2001 13.52C11.5468 14.1533 10.8334 14.0533 10.1468 13.7533C9.42011 13.4467 8.75344 13.4333 7.98678 13.7533C7.02678 14.1667 6.52011 14.0467 5.94678 13.52C2.69344 10.1667 3.17344 5.06 6.86678 4.87333C7.76678 4.92 8.39344 5.36667 8.92011 5.40667C9.70678 5.24667 10.4601 4.78667 11.3001 4.84667C12.3068 4.92667 13.0668 5.32667 13.5668 6.04667C11.4868 7.29333 11.9801 10.0333 13.8868 10.8C13.5068 11.8 13.0134 12.7933 12.1934 13.5267L12.2001 13.52ZM8.85344 4.83333C8.75344 3.34667 9.96011 2.12 11.3468 2C11.5401 3.72 9.78678 5 8.85344 4.83333Z" fill="white"/>
</svg>
