<svg width="24" height="24" viewBox="0 0 24 24" fill="none" xmlns="http://www.w3.org/2000/svg">
<path fill-rule="evenodd" clip-rule="evenodd" d="M10.8223 5.17337C11.1761 4.91308 11.6797 4.94682 11.994 5.26822L12.0663 5.35202C12.3307 5.70031 12.2964 6.19609 11.97 6.50543L7.09494 11.125H19.1111L19.2148 11.1309C19.6569 11.1814 20 11.5513 20 12C20 12.4832 19.602 12.875 19.1111 12.875H7.09494L11.97 17.4946L12.0455 17.5756C12.3232 17.9137 12.3082 18.4104 11.994 18.7318C11.6535 19.08 11.0908 19.0905 10.7371 18.7554L4.27247 12.6304L4.19508 12.5471C3.91133 12.1995 3.93712 11.6873 4.27247 11.3696L10.7371 5.24457L10.8223 5.17337Z" fill="white"/>
</svg>
