<svg width="24" height="24" viewBox="0 0 24 24" fill="none" xmlns="http://www.w3.org/2000/svg">
<path fill-rule="evenodd" clip-rule="evenodd" d="M17.7308 6.26917C18.0982 6.63655 18.0849 7.25537 17.7191 7.70392L17.6285 7.80422L13.4327 12L17.6285 16.1958C18.0806 16.6479 18.1265 17.3352 17.7308 17.7308C17.3635 18.0982 16.7446 18.0849 16.2961 17.7191L16.1958 17.6285L12 13.4327L7.80422 17.6285C7.35207 18.0806 6.6648 18.1265 6.26917 17.7308C5.9018 17.3635 5.91507 16.7446 6.28085 16.2961L6.37151 16.1958L10.5673 12L6.37151 7.80422C5.91936 7.35207 5.87354 6.6648 6.26917 6.26917C6.63655 5.9018 7.25537 5.91507 7.70392 6.28085L7.80422 6.37151L12 10.5673L16.1958 6.37151C16.6479 5.91936 17.3352 5.87354 17.7308 6.26917Z" fill="white"/>
</svg>
