<svg width="32" height="33" viewBox="0 0 32 33" fill="none" xmlns="http://www.w3.org/2000/svg">
<g id="ion:book" clip-path="url(#clip0_968_10487)">
<path id="Vector" d="M12.415 5.29642C10.0065 4.14652 6.64012 3.58323 2.13316 3.56323C1.70811 3.55746 1.29139 3.6814 0.938592 3.91854C0.649008 4.11427 0.411959 4.37817 0.248295 4.68701C0.0846317 4.99586 -0.000632188 5.34019 3.52894e-06 5.68972V24.7615C3.52894e-06 26.0507 0.91726 27.0233 2.13316 27.0233C6.87076 27.0233 11.623 27.4659 14.4695 30.1563C14.5084 30.1933 14.5573 30.218 14.6102 30.2274C14.6631 30.2368 14.7175 30.2305 14.7668 30.2091C14.8161 30.1878 14.8581 30.1525 14.8874 30.1076C14.9168 30.0626 14.9323 30.0101 14.9321 29.9564V7.48424C14.9322 7.33262 14.8998 7.18275 14.837 7.04474C14.7742 6.90674 14.6825 6.78382 14.5681 6.6843C13.9161 6.12691 13.1919 5.66007 12.415 5.29642ZM31.0587 3.91654C30.7058 3.67999 30.289 3.55674 29.8642 3.56323C25.3572 3.58323 21.9908 4.14385 19.5824 5.29642C18.8055 5.65941 18.0811 6.12533 17.4285 6.68164C17.3144 6.78133 17.223 6.9043 17.1603 7.04227C17.0976 7.18024 17.0652 7.33003 17.0652 7.48157V29.955C17.0652 30.0066 17.0804 30.0571 17.109 30.1001C17.1375 30.1431 17.1781 30.1767 17.2256 30.1967C17.2732 30.2167 17.3256 30.2222 17.3763 30.2125C17.427 30.2029 17.4737 30.1784 17.5105 30.1423C19.2217 28.4425 22.2248 27.0213 29.8668 27.0219C30.4326 27.0219 30.9752 26.7972 31.3752 26.3972C31.7753 25.9971 32 25.4545 32 24.8888V5.69039C32.0008 5.34017 31.9153 4.99514 31.7512 4.68578C31.587 4.37641 31.3492 4.11222 31.0587 3.91654Z" fill="url(#paint0_linear_968_10487)"/>
</g>
<defs>
<linearGradient id="paint0_linear_968_10487" x1="16" y1="3.56299" x2="16" y2="30.2316" gradientUnits="userSpaceOnUse">
<stop stop-color="#245ED3"/>
<stop offset="1" stop-color="#187ADC"/>
</linearGradient>
<clipPath id="clip0_968_10487">
<rect width="32" height="32" fill="white" transform="translate(0 0.897461)"/>
</clipPath>
</defs>
</svg>
