<svg width="32" height="33" viewBox="0 0 32 33" fill="none" xmlns="http://www.w3.org/2000/svg">
<g id="heroicons:window-20-solid">
<path id="Vector" fill-rule="evenodd" clip-rule="evenodd" d="M4 4.45312C2.93913 4.45312 1.92172 4.87455 1.17157 5.6247C0.421427 6.37484 0 7.39226 0 8.45313V25.342C0 26.4029 0.421427 27.4203 1.17157 28.1704C1.92172 28.9206 2.93913 29.342 4 29.342H28C28.5253 29.342 29.0454 29.2386 29.5307 29.0375C30.016 28.8365 30.457 28.5419 30.8284 28.1704C31.1999 27.799 31.4945 27.3581 31.6955 26.8727C31.8965 26.3874 32 25.8673 32 25.342V8.45313C32 7.92784 31.8965 7.40769 31.6955 6.92239C31.4945 6.43709 31.1999 5.99613 30.8284 5.6247C30.457 5.25326 30.016 4.95863 29.5307 4.75761C29.0454 4.55659 28.5253 4.45312 28 4.45312H4ZM2.66667 15.1198V25.342C2.66667 26.078 3.264 26.6753 4 26.6753H28C28.3536 26.6753 28.6928 26.5349 28.9428 26.2848C29.1929 26.0348 29.3333 25.6956 29.3333 25.342V15.1198H2.66667ZM5.33333 8.45313C4.97971 8.45313 4.64057 8.5936 4.39052 8.84365C4.14048 9.0937 4 9.43284 4 9.78646V9.80424C4 10.5402 4.59733 11.1376 5.33333 11.1376H5.35111C5.70473 11.1376 6.04387 10.9971 6.29392 10.747C6.54397 10.497 6.68444 10.1579 6.68444 9.80424V9.78646C6.68444 9.43284 6.54397 9.0937 6.29392 8.84365C6.04387 8.5936 5.70473 8.45313 5.35111 8.45313H5.33333ZM9.33333 9.78646C9.33333 9.43284 9.47381 9.0937 9.72386 8.84365C9.97391 8.5936 10.313 8.45313 10.6667 8.45313H10.6844C11.0381 8.45313 11.3772 8.5936 11.6273 8.84365C11.8773 9.0937 12.0178 9.43284 12.0178 9.78646V9.80424C12.0178 10.1579 11.8773 10.497 11.6273 10.747C11.3772 10.9971 11.0381 11.1376 10.6844 11.1376H10.6667C10.313 11.1376 9.97391 10.9971 9.72386 10.747C9.47381 10.497 9.33333 10.1579 9.33333 9.80424V9.78646ZM16 8.45313C15.6464 8.45313 15.3072 8.5936 15.0572 8.84365C14.8071 9.0937 14.6667 9.43284 14.6667 9.78646V9.80424C14.6667 10.5402 15.264 11.1376 16 11.1376H16.0178C16.3714 11.1376 16.7105 10.9971 16.9606 10.747C17.2106 10.497 17.3511 10.1579 17.3511 9.80424V9.78646C17.3511 9.43284 17.2106 9.0937 16.9606 8.84365C16.7105 8.5936 16.3714 8.45313 16.0178 8.45313H16Z" fill="url(#paint0_linear_968_10527)"/>
</g>
<defs>
<linearGradient id="paint0_linear_968_10527" x1="16" y1="4.45312" x2="16" y2="29.342" gradientUnits="userSpaceOnUse">
<stop stop-color="#245ED3"/>
<stop offset="1" stop-color="#187ADC"/>
</linearGradient>
</defs>
</svg>
