<svg width="32" height="33" viewBox="0 0 32 33" fill="none" xmlns="http://www.w3.org/2000/svg">
<g id="ph:presentation-chart-fill" clip-path="url(#clip0_968_10511)">
<path id="Vector" d="M29.5385 3.97405H17.2308V1.51251C17.2308 1.18609 17.1011 0.873036 16.8703 0.642222C16.6395 0.411408 16.3264 0.281738 16 0.281738C15.6736 0.281738 15.3605 0.411408 15.1297 0.642222C14.8989 0.873036 14.7692 1.18609 14.7692 1.51251V3.97405H2.46154C1.8087 3.97405 1.1826 4.23339 0.720968 4.69501C0.25934 5.15664 0 5.78274 0 6.43558V24.8971C0 25.55 0.25934 26.1761 0.720968 26.6377C1.1826 27.0993 1.8087 27.3587 2.46154 27.3587H8.51692L5.19231 31.5125C4.9883 31.7675 4.89394 32.0931 4.93001 32.4177C4.96607 32.7423 5.1296 33.0393 5.38462 33.2433C5.63963 33.4473 5.96525 33.5416 6.28983 33.5056C6.61441 33.4695 6.91137 33.306 7.11539 33.051L11.6677 27.3587H20.3323L24.8846 33.051C24.9856 33.1772 25.1105 33.2824 25.2522 33.3604C25.3938 33.4384 25.5495 33.4877 25.7102 33.5056C25.8709 33.5234 26.0336 33.5095 26.1889 33.4645C26.3442 33.4195 26.4891 33.3443 26.6154 33.2433C26.7417 33.1423 26.8468 33.0174 26.9248 32.8757C27.0028 32.7341 27.0521 32.5784 27.07 32.4177C27.0879 32.257 27.0739 32.0943 27.0289 31.939C26.9839 31.7837 26.9087 31.6388 26.8077 31.5125L23.4831 27.3587H29.5385C30.1913 27.3587 30.8174 27.0993 31.279 26.6377C31.7407 26.1761 32 25.55 32 24.8971V6.43558C32 5.78274 31.7407 5.15664 31.279 4.69501C30.8174 4.23339 30.1913 3.97405 29.5385 3.97405ZM12.3077 19.974C12.3077 20.3005 12.178 20.6135 11.9472 20.8443C11.7164 21.0751 11.4033 21.2048 11.0769 21.2048C10.7505 21.2048 10.4375 21.0751 10.2066 20.8443C9.97582 20.6135 9.84615 20.3005 9.84615 19.974V16.2817C9.84615 15.9553 9.97582 15.6423 10.2066 15.4115C10.4375 15.1806 10.7505 15.051 11.0769 15.051C11.4033 15.051 11.7164 15.1806 11.9472 15.4115C12.178 15.6423 12.3077 15.9553 12.3077 16.2817V19.974ZM17.2308 19.974C17.2308 20.3005 17.1011 20.6135 16.8703 20.8443C16.6395 21.0751 16.3264 21.2048 16 21.2048C15.6736 21.2048 15.3605 21.0751 15.1297 20.8443C14.8989 20.6135 14.7692 20.3005 14.7692 19.974V13.8202C14.7692 13.4938 14.8989 13.1807 15.1297 12.9499C15.3605 12.7191 15.6736 12.5894 16 12.5894C16.3264 12.5894 16.6395 12.7191 16.8703 12.9499C17.1011 13.1807 17.2308 13.4938 17.2308 13.8202V19.974ZM22.1538 19.974C22.1538 20.3005 22.0242 20.6135 21.7934 20.8443C21.5625 21.0751 21.2495 21.2048 20.9231 21.2048C20.5967 21.2048 20.2836 21.0751 20.0528 20.8443C19.822 20.6135 19.6923 20.3005 19.6923 19.974V11.3587C19.6923 11.0322 19.822 10.7192 20.0528 10.4884C20.2836 10.2576 20.5967 10.1279 20.9231 10.1279C21.2495 10.1279 21.5625 10.2576 21.7934 10.4884C22.0242 10.7192 22.1538 11.0322 22.1538 11.3587V19.974Z" fill="url(#paint0_linear_968_10511)"/>
</g>
<defs>
<linearGradient id="paint0_linear_968_10511" x1="16" y1="0.281738" x2="16" y2="33.5131" gradientUnits="userSpaceOnUse">
<stop stop-color="#245ED3"/>
<stop offset="1" stop-color="#187ADC"/>
</linearGradient>
<clipPath id="clip0_968_10511">
<rect width="32" height="32" fill="white" transform="translate(0 0.897461)"/>
</clipPath>
</defs>
</svg>
