<svg width="32" height="32" viewBox="0 0 32 32" fill="none" xmlns="http://www.w3.org/2000/svg">
<g clip-path="url(#clip0_1071_1253)">
<path fill-rule="evenodd" clip-rule="evenodd" d="M0 3.2C0 2.35131 0.337142 1.53737 0.937258 0.937258C1.53737 0.337142 2.35131 0 3.2 0L28.8 0C29.6487 0 30.4626 0.337142 31.0627 0.937258C31.6629 1.53737 32 2.35131 32 3.2V11.7333L30.2933 10.4512C28.4446 9.06468 26.1579 8.39154 23.8528 8.55535C21.5477 8.71917 19.3791 9.70895 17.7451 11.343C16.1111 12.977 15.1213 15.1456 14.9575 17.4507C14.7937 19.7557 15.4668 22.0425 16.8533 23.8912L17.0667 24.1771V32H3.2C2.35131 32 1.53737 31.6629 0.937258 31.0627C0.337142 30.4626 0 29.6487 0 28.8L0 3.2ZM17.0667 10.6667H6.4V8.53333H17.0667V10.6667ZM6.4 17.0667H12.8V14.9333H6.4V17.0667Z" fill="url(#paint0_linear_1071_1253)"/>
<path fill-rule="evenodd" clip-rule="evenodd" d="M24.5334 10.6665C23.0629 10.6663 21.6251 11.1003 20.4003 11.9141C19.1755 12.7278 18.2182 13.8852 17.6486 15.2409C17.079 16.5965 16.9224 18.0903 17.1984 19.5346C17.4744 20.979 18.1707 22.3097 19.2001 23.3598V30.9332C19.2001 31.1313 19.2552 31.3254 19.3594 31.494C19.4635 31.6625 19.6125 31.7986 19.7897 31.8872C19.9669 31.9758 20.1652 32.0133 20.3625 31.9955C20.5598 31.9777 20.7483 31.9054 20.9067 31.7865L24.5334 29.0665L28.1601 31.7865C28.3186 31.9054 28.507 31.9777 28.7043 31.9955C28.9016 32.0133 29.0999 31.9758 29.2771 31.8872C29.4543 31.7986 29.6033 31.6625 29.7074 31.494C29.8116 31.3254 29.8667 31.1313 29.8667 30.9332V23.3598C30.8961 22.3097 31.5924 20.979 31.8684 19.5346C32.1444 18.0903 31.9878 16.5965 31.4182 15.2409C30.8486 13.8852 29.8913 12.7278 28.6665 11.9141C27.4417 11.1003 26.0039 10.6663 24.5334 10.6665ZM21.3334 28.7998V24.8809C22.3041 25.3417 23.3878 25.5998 24.5334 25.5998C25.679 25.5998 26.7627 25.3438 27.7334 24.8809V28.7998L25.1734 26.8798C24.9888 26.7414 24.7642 26.6665 24.5334 26.6665C24.3026 26.6665 24.078 26.7414 23.8934 26.8798L21.3334 28.7998Z" fill="url(#paint1_linear_1071_1253)"/>
</g>
<defs>
<linearGradient id="paint0_linear_1071_1253" x1="16" y1="0" x2="16" y2="32" gradientUnits="userSpaceOnUse">
<stop stop-color="#245ED3"/>
<stop offset="1" stop-color="#187ADC"/>
</linearGradient>
<linearGradient id="paint1_linear_1071_1253" x1="24.5334" y1="10.6665" x2="24.5334" y2="31.9998" gradientUnits="userSpaceOnUse">
<stop stop-color="#245ED3"/>
<stop offset="1" stop-color="#187ADC"/>
</linearGradient>
<clipPath id="clip0_1071_1253">
<rect width="32" height="32" fill="white"/>
</clipPath>
</defs>
</svg>
