<svg width="32" height="33" viewBox="0 0 32 33" fill="none" xmlns="http://www.w3.org/2000/svg">
<g id="teenyicons:certificate-solid" clip-path="url(#clip0_968_10460)">
<g id="Group">
<path id="Vector" fill-rule="evenodd" clip-rule="evenodd" d="M0 4.09746C0 3.24877 0.337142 2.43484 0.937258 1.83472C1.53737 1.2346 2.35131 0.897461 3.2 0.897461L28.8 0.897461C29.6487 0.897461 30.4626 1.2346 31.0627 1.83472C31.6629 2.43484 32 3.24877 32 4.09746V12.6308L30.2933 11.3487C28.4446 9.96214 26.1579 9.289 23.8528 9.45281C21.5477 9.61663 19.3791 10.6064 17.7451 12.2404C16.1111 13.8745 15.1213 16.0431 14.9575 18.3481C14.7937 20.6532 15.4668 22.94 16.8533 24.7887L17.0667 25.0745V32.8975H3.2C2.35131 32.8975 1.53737 32.5603 0.937258 31.9602C0.337142 31.3601 0 30.5462 0 29.6975L0 4.09746ZM17.0667 11.5641H6.4V9.43079H17.0667V11.5641ZM6.4 17.9641H12.8V15.8308H6.4V17.9641Z" fill="#8D94A7"/>
<path id="Vector_2" fill-rule="evenodd" clip-rule="evenodd" d="M24.5333 11.564C23.0629 11.5638 21.625 11.9978 20.4002 12.8115C19.1754 13.6253 18.2182 14.7826 17.6486 16.1383C17.0789 17.494 16.9223 18.9877 17.1983 20.4321C17.4743 21.8764 18.1707 23.2072 19.2 24.2573V31.8306C19.2 32.0287 19.2552 32.2229 19.3593 32.3914C19.4635 32.5599 19.6125 32.6961 19.7897 32.7847C19.9668 32.8733 20.1652 32.9108 20.3625 32.893C20.5598 32.8752 20.7482 32.8028 20.9067 32.684L24.5333 29.964L28.16 32.684C28.3185 32.8028 28.5069 32.8752 28.7042 32.893C28.9015 32.9108 29.0999 32.8733 29.277 32.7847C29.4542 32.6961 29.6032 32.5599 29.7074 32.3914C29.8115 32.2229 29.8667 32.0287 29.8667 31.8306V24.2573C30.896 23.2072 31.5924 21.8764 31.8684 20.4321C32.1444 18.9877 31.9878 17.494 31.4181 16.1383C30.8485 14.7826 29.8913 13.6253 28.6665 12.8115C27.4417 11.9978 26.0038 11.5638 24.5333 11.564ZM21.3333 29.6973V25.7784C22.304 26.2392 23.3877 26.4973 24.5333 26.4973C25.6789 26.4973 26.7627 26.2413 27.7333 25.7784V29.6973L25.1734 27.7773C24.9887 27.6388 24.7641 27.564 24.5333 27.564C24.3026 27.564 24.078 27.6388 23.8933 27.7773L21.3333 29.6973Z" fill="#8D94A7"/>
</g>
</g>
<defs>
<clipPath id="clip0_968_10460">
<rect width="32" height="32" fill="white" transform="translate(0 0.897461)"/>
</clipPath>
</defs>
</svg>
