<svg width="64" height="64" viewBox="0 0 64 64" fill="none" xmlns="http://www.w3.org/2000/svg">
<path id="Success" d="M32 0C49.6731 0 64 14.3269 64 32C64 49.6731 49.6731 64 32 64C14.3269 64 0 49.6731 0 32C0 14.3269 14.3269 0 32 0ZM45.4337 22.5858C44.7394 21.8915 43.6617 21.8144 42.8822 22.3544L42.6053 22.5858L28 37.192L21.4142 30.6053L21.1372 30.3738C20.3577 29.8339 19.2801 29.911 18.5858 30.6053C17.8915 31.2995 17.8144 32.3772 18.3544 33.1567L18.5858 33.4337L26.5858 41.4337L26.8628 41.6651C27.5448 42.1376 28.4552 42.1376 29.1372 41.6651L29.4142 41.4337L45.4337 25.4142L45.6651 25.1372C46.2051 24.3577 46.1279 23.2801 45.4337 22.5858Z" fill="#59CD6B"/>
</svg>
