<svg width="233" height="24" viewBox="0 0 233 24" fill="none" xmlns="http://www.w3.org/2000/svg">
<path d="M8.4082 14.7207C8.4082 14.4993 8.37565 14.3008 8.31055 14.125C8.24544 13.9427 8.125 13.7734 7.94922 13.6172C7.77344 13.4609 7.51953 13.3047 7.1875 13.1484C6.86198 12.9857 6.43229 12.8164 5.89844 12.6406C5.27344 12.4323 4.67122 12.1979 4.0918 11.9375C3.51237 11.6706 2.99479 11.3613 2.53906 11.0098C2.08333 10.6517 1.72201 10.235 1.45508 9.75977C1.18815 9.27799 1.05469 8.7181 1.05469 8.08008C1.05469 7.4681 1.19141 6.91797 1.46484 6.42969C1.73828 5.9349 2.11914 5.51497 2.60742 5.16992C3.10221 4.81836 3.68164 4.55143 4.3457 4.36914C5.00977 4.18034 5.73568 4.08594 6.52344 4.08594C7.5651 4.08594 8.48307 4.26823 9.27734 4.63281C10.0781 4.99089 10.7031 5.50195 11.1523 6.16602C11.6081 6.82357 11.8359 7.60156 11.8359 8.5H8.42773C8.42773 8.14193 8.35286 7.82617 8.20312 7.55273C8.0599 7.2793 7.8418 7.06445 7.54883 6.9082C7.25586 6.75195 6.88802 6.67383 6.44531 6.67383C6.01562 6.67383 5.6543 6.73893 5.36133 6.86914C5.06836 6.99935 4.84701 7.17513 4.69727 7.39648C4.54753 7.61133 4.47266 7.84896 4.47266 8.10938C4.47266 8.32422 4.53125 8.51953 4.64844 8.69531C4.77214 8.86458 4.94466 9.02409 5.16602 9.17383C5.39388 9.32357 5.66732 9.4668 5.98633 9.60352C6.31185 9.74023 6.67643 9.8737 7.08008 10.0039C7.83529 10.2448 8.50586 10.515 9.0918 10.8145C9.68424 11.1074 10.1823 11.4427 10.5859 11.8203C10.9961 12.1914 11.3053 12.6146 11.5137 13.0898C11.7285 13.5651 11.8359 14.1022 11.8359 14.7012C11.8359 15.3392 11.7122 15.9056 11.4648 16.4004C11.2174 16.8952 10.8626 17.3151 10.4004 17.6602C9.93815 17.9987 9.38477 18.2559 8.74023 18.4316C8.0957 18.6074 7.3763 18.6953 6.58203 18.6953C5.85286 18.6953 5.13346 18.6042 4.42383 18.4219C3.7207 18.2331 3.08268 17.9466 2.50977 17.5625C1.93685 17.1719 1.47786 16.6738 1.13281 16.0684C0.794271 15.4564 0.625 14.7305 0.625 13.8906H4.0625C4.0625 14.3073 4.11784 14.6589 4.22852 14.9453C4.33919 15.2318 4.50195 15.4629 4.7168 15.6387C4.93164 15.8079 5.19531 15.9316 5.50781 16.0098C5.82031 16.0814 6.17839 16.1172 6.58203 16.1172C7.01823 16.1172 7.36979 16.0553 7.63672 15.9316C7.90365 15.8014 8.09896 15.6322 8.22266 15.4238C8.34635 15.209 8.4082 14.9746 8.4082 14.7207ZM17.2461 4.28125V18.5H13.8281V4.28125H17.2461ZM21.3574 4.28125H24.1504L27.3242 14.1738L30.498 4.28125H33.291L28.457 18.5H26.1914L21.3574 4.28125ZM19.6582 4.28125H22.5488L23.0859 15.1797V18.5H19.6582V4.28125ZM32.0996 4.28125H35V18.5H31.5625V15.1797L32.0996 4.28125ZM44.9121 4.28125H48.3398V13.5684C48.3398 14.6751 48.1087 15.6126 47.6465 16.3809C47.1842 17.1426 46.5365 17.7188 45.7031 18.1094C44.8698 18.5 43.89 18.6953 42.7637 18.6953C41.6504 18.6953 40.6706 18.5 39.8242 18.1094C38.9844 17.7188 38.3268 17.1426 37.8516 16.3809C37.3828 15.6126 37.1484 14.6751 37.1484 13.5684V4.28125H40.5859V13.5684C40.5859 14.1543 40.6706 14.6328 40.8398 15.0039C41.0091 15.3685 41.2565 15.6354 41.582 15.8047C41.9076 15.974 42.3014 16.0586 42.7637 16.0586C43.2324 16.0586 43.6263 15.974 43.9453 15.8047C44.2643 15.6354 44.5052 15.3685 44.668 15.0039C44.8307 14.6328 44.9121 14.1543 44.9121 13.5684V4.28125ZM59.8926 15.8633V18.5H52.7051V15.8633H59.8926ZM53.9258 4.28125V18.5H50.498V4.28125H53.9258ZM67.5586 7.26953L64.0918 18.5H60.4102L65.6348 4.28125H67.9688L67.5586 7.26953ZM70.4297 18.5L66.9531 7.26953L66.5039 4.28125H68.8672L74.1211 18.5H70.4297ZM70.293 13.1973V15.8438H62.998V13.1973H70.293ZM80.8789 4.28125V18.5H77.4512V4.28125H80.8789ZM85.1562 4.28125V6.92773H73.2715V4.28125H85.1562ZM98.3691 11.1074V11.6836C98.3691 12.7708 98.2161 13.7474 97.9102 14.6133C97.6107 15.4727 97.1842 16.2083 96.6309 16.8203C96.0775 17.4258 95.4232 17.8913 94.668 18.2168C93.9128 18.5358 93.0794 18.6953 92.168 18.6953C91.25 18.6953 90.4102 18.5358 89.6484 18.2168C88.8932 17.8913 88.2357 17.4258 87.6758 16.8203C87.1224 16.2083 86.6927 15.4727 86.3867 14.6133C86.0872 13.7474 85.9375 12.7708 85.9375 11.6836V11.1074C85.9375 10.0202 86.0872 9.04362 86.3867 8.17773C86.6927 7.31185 87.1191 6.57617 87.666 5.9707C88.2194 5.35872 88.8737 4.89323 89.6289 4.57422C90.3906 4.2487 91.2305 4.08594 92.1484 4.08594C93.0599 4.08594 93.8932 4.2487 94.6484 4.57422C95.4102 4.89323 96.0677 5.35872 96.6211 5.9707C97.1745 6.57617 97.6042 7.31185 97.9102 8.17773C98.2161 9.04362 98.3691 10.0202 98.3691 11.1074ZM94.8926 11.6836V11.0879C94.8926 10.3848 94.8307 9.76628 94.707 9.23242C94.5898 8.69206 94.4141 8.23958 94.1797 7.875C93.9453 7.51042 93.6556 7.23698 93.3105 7.05469C92.972 6.86589 92.5846 6.77148 92.1484 6.77148C91.6927 6.77148 91.2956 6.86589 90.957 7.05469C90.6185 7.23698 90.3353 7.51042 90.1074 7.875C89.8796 8.23958 89.707 8.69206 89.5898 9.23242C89.4792 9.76628 89.4238 10.3848 89.4238 11.0879V11.6836C89.4238 12.3802 89.4792 12.9987 89.5898 13.5391C89.707 14.0729 89.8796 14.5254 90.1074 14.8965C90.3418 15.2676 90.6283 15.5475 90.9668 15.7363C91.3118 15.9251 91.7122 16.0195 92.168 16.0195C92.6042 16.0195 92.9915 15.9251 93.3301 15.7363C93.6686 15.5475 93.9518 15.2676 94.1797 14.8965C94.4141 14.5254 94.5898 14.0729 94.707 13.5391C94.8307 12.9987 94.8926 12.3802 94.8926 11.6836ZM100.146 4.28125H105.742C106.836 4.28125 107.786 4.44401 108.594 4.76953C109.401 5.09505 110.023 5.57682 110.459 6.21484C110.902 6.85286 111.123 7.64062 111.123 8.57812C111.123 9.39193 110.996 10.0723 110.742 10.6191C110.488 11.166 110.133 11.6185 109.678 11.9766C109.229 12.3281 108.704 12.6178 108.105 12.8457L106.982 13.4805H102.285L102.266 10.834H105.742C106.178 10.834 106.54 10.7559 106.826 10.5996C107.113 10.4434 107.327 10.222 107.471 9.93555C107.62 9.64258 107.695 9.29427 107.695 8.89062C107.695 8.48047 107.62 8.12891 107.471 7.83594C107.321 7.54297 107.1 7.31836 106.807 7.16211C106.52 7.00586 106.165 6.92773 105.742 6.92773H103.574V18.5H100.146V4.28125ZM107.93 18.5L104.785 12.2109L108.418 12.1914L111.602 18.3535V18.5H107.93Z" fill="white"/>
<path d="M113.252 16.957C113.252 16.4883 113.421 16.0977 113.76 15.7852C114.098 15.4661 114.535 15.3066 115.068 15.3066C115.609 15.3066 116.045 15.4661 116.377 15.7852C116.715 16.0977 116.885 16.4883 116.885 16.957C116.885 17.4258 116.715 17.8197 116.377 18.1387C116.045 18.4512 115.609 18.6074 115.068 18.6074C114.535 18.6074 114.098 18.4512 113.76 18.1387C113.421 17.8197 113.252 17.4258 113.252 16.957ZM127.334 13.6855H130.752C130.706 14.6751 130.439 15.5475 129.951 16.3027C129.463 17.0579 128.786 17.6471 127.92 18.0703C127.061 18.487 126.045 18.6953 124.873 18.6953C123.923 18.6953 123.073 18.5358 122.324 18.2168C121.582 17.8978 120.951 17.4388 120.43 16.8398C119.915 16.2409 119.521 15.515 119.248 14.6621C118.981 13.8092 118.848 12.849 118.848 11.7812V11.0098C118.848 9.94206 118.988 8.98177 119.268 8.12891C119.554 7.26953 119.958 6.54036 120.479 5.94141C121.006 5.33594 121.637 4.8737 122.373 4.55469C123.109 4.23568 123.926 4.07617 124.824 4.07617C126.061 4.07617 127.106 4.29753 127.959 4.74023C128.812 5.18294 129.473 5.79167 129.941 6.56641C130.41 7.33464 130.687 8.21029 130.771 9.19336H127.354C127.34 8.65951 127.249 8.21354 127.08 7.85547C126.911 7.49089 126.644 7.21745 126.279 7.03516C125.915 6.85286 125.43 6.76172 124.824 6.76172C124.401 6.76172 124.033 6.83984 123.721 6.99609C123.408 7.15234 123.148 7.39974 122.939 7.73828C122.731 8.07682 122.575 8.51628 122.471 9.05664C122.373 9.59049 122.324 10.235 122.324 10.9902V11.7812C122.324 12.5365 122.37 13.181 122.461 13.7148C122.552 14.2487 122.699 14.6849 122.9 15.0234C123.102 15.362 123.363 15.6126 123.682 15.7754C124.007 15.9316 124.404 16.0098 124.873 16.0098C125.394 16.0098 125.833 15.9284 126.191 15.7656C126.549 15.5964 126.826 15.3424 127.021 15.0039C127.217 14.6589 127.321 14.2194 127.334 13.6855ZM144.404 11.1074V11.6836C144.404 12.7708 144.251 13.7474 143.945 14.6133C143.646 15.4727 143.219 16.2083 142.666 16.8203C142.113 17.4258 141.458 17.8913 140.703 18.2168C139.948 18.5358 139.115 18.6953 138.203 18.6953C137.285 18.6953 136.445 18.5358 135.684 18.2168C134.928 17.8913 134.271 17.4258 133.711 16.8203C133.158 16.2083 132.728 15.4727 132.422 14.6133C132.122 13.7474 131.973 12.7708 131.973 11.6836V11.1074C131.973 10.0202 132.122 9.04362 132.422 8.17773C132.728 7.31185 133.154 6.57617 133.701 5.9707C134.255 5.35872 134.909 4.89323 135.664 4.57422C136.426 4.2487 137.266 4.08594 138.184 4.08594C139.095 4.08594 139.928 4.2487 140.684 4.57422C141.445 4.89323 142.103 5.35872 142.656 5.9707C143.21 6.57617 143.639 7.31185 143.945 8.17773C144.251 9.04362 144.404 10.0202 144.404 11.1074ZM140.928 11.6836V11.0879C140.928 10.3848 140.866 9.76628 140.742 9.23242C140.625 8.69206 140.449 8.23958 140.215 7.875C139.98 7.51042 139.691 7.23698 139.346 7.05469C139.007 6.86589 138.62 6.77148 138.184 6.77148C137.728 6.77148 137.331 6.86589 136.992 7.05469C136.654 7.23698 136.37 7.51042 136.143 7.875C135.915 8.23958 135.742 8.69206 135.625 9.23242C135.514 9.76628 135.459 10.3848 135.459 11.0879V11.6836C135.459 12.3802 135.514 12.9987 135.625 13.5391C135.742 14.0729 135.915 14.5254 136.143 14.8965C136.377 15.2676 136.663 15.5475 137.002 15.7363C137.347 15.9251 137.747 16.0195 138.203 16.0195C138.639 16.0195 139.027 15.9251 139.365 15.7363C139.704 15.5475 139.987 15.2676 140.215 14.8965C140.449 14.5254 140.625 14.0729 140.742 13.5391C140.866 12.9987 140.928 12.3802 140.928 11.6836ZM147.881 4.28125H150.674L153.848 14.1738L157.021 4.28125H159.814L154.98 18.5H152.715L147.881 4.28125ZM146.182 4.28125H149.072L149.609 15.1797V18.5H146.182V4.28125ZM158.623 4.28125H161.523V18.5H158.086V15.1797L158.623 4.28125ZM169.395 13.6758H165.859V11.0293H169.395C169.876 11.0293 170.267 10.9479 170.566 10.7852C170.866 10.6224 171.084 10.3978 171.221 10.1113C171.364 9.81836 171.436 9.48958 171.436 9.125C171.436 8.73438 171.364 8.37305 171.221 8.04102C171.084 7.70898 170.866 7.44206 170.566 7.24023C170.267 7.0319 169.876 6.92773 169.395 6.92773H167.148V18.5H163.721V4.28125H169.395C170.534 4.28125 171.514 4.48958 172.334 4.90625C173.161 5.32292 173.796 5.89583 174.238 6.625C174.681 7.34766 174.902 8.17448 174.902 9.10547C174.902 10.0234 174.681 10.8242 174.238 11.5078C173.796 12.1914 173.161 12.7253 172.334 13.1094C171.514 13.487 170.534 13.6758 169.395 13.6758ZM181.035 7.26953L177.568 18.5H173.887L179.111 4.28125H181.445L181.035 7.26953ZM183.906 18.5L180.43 7.26953L179.98 4.28125H182.344L187.598 18.5H183.906ZM183.77 13.1973V15.8438H176.475V13.1973H183.77ZM200.518 4.28125V18.5H197.1L192.07 9.65234V18.5H188.643V4.28125H192.07L197.1 13.1289V4.28125H200.518ZM204.99 4.28125L207.607 10.4531L210.234 4.28125H213.926L209.355 13.3926V18.5H205.869V13.3926L201.289 4.28125H204.99Z" fill="#3C9DFE"/>
</svg>
